<?xml version="1.0" standalone="no"?>
<!DOCTYPE svg PUBLIC "-//W3C//DTD SVG 20010904//EN"
 "http://www.w3.org/TR/2001/REC-SVG-20010904/DTD/svg10.dtd">
<svg version="1.0" xmlns="http://www.w3.org/2000/svg"
 width="260.000000pt" height="260.000000pt" viewBox="0 0 260.000000 260.000000"
 preserveAspectRatio="xMidYMid meet">
<metadata>
Created by potrace 1.11, written by Peter Selinger 2001-2013
</metadata>
<g transform="translate(0.000000,260.000000) scale(0.100000,-0.100000)"
fill="#000000" stroke="none">
<path d="M605 1275 l0 -925 122 0 123 0 2 709 3 709 163 -252 c90 -138 298
-456 461 -706 l297 -455 125 -3 125 -3 0 926 -1 925 -121 0 -121 0 0 -705 c-1
-388 -3 -708 -5 -710 -2 -3 -31 37 -63 88 -33 50 -132 204 -222 340 -90 136
-163 252 -163 258 0 5 -3 9 -8 9 -4 0 -12 9 -17 20 -9 18 -103 163 -352 543
l-103 157 -123 0 -122 0 0 -925z"/>
</g>
</svg>
